<svg xmlns="http://www.w3.org/2000/svg" viewBox="0 0 1200 470" font-family="ui-serif, 'Source Serif 4', serif">
  <rect width="1200" height="470" fill="#FBFAF7"/>

  <!-- column tint regions: Night (left) + Day (right) paper-2; Bridge (center) stays paper -->
  <rect x="0" y="0" width="400" height="470" fill="#F2EEE4" opacity="0.45"/>
  <rect x="800" y="0" width="400" height="470" fill="#F2EEE4" opacity="0.45"/>

  <!-- time axis -->
  <line x1="60" y1="32" x2="1140" y2="32" stroke="#D8D4CC" stroke-width="0.5" stroke-dasharray="2,3"/>
  <text x="80" y="22" font-size="10" font-family="ui-monospace, monospace" fill="#8A8276">2026-03</text>
  <text x="500" y="22" font-size="10" font-family="ui-monospace, monospace" fill="#8A8276">2026-04</text>
  <text x="950" y="22" font-size="10" font-family="ui-monospace, monospace" fill="#8A8276">2026-05</text>

  <!-- column headers -->
  <text x="200" y="60" font-size="11" font-family="ui-monospace, monospace" fill="#1F3A5F" letter-spacing="3" text-anchor="middle">NIGHT · 想点子</text>
  <text x="600" y="60" font-size="11" font-family="ui-monospace, monospace" fill="#1F3A5F" letter-spacing="3" text-anchor="middle">BRIDGE · 做原型</text>
  <text x="1000" y="60" font-size="11" font-family="ui-monospace, monospace" fill="#1F3A5F" letter-spacing="3" text-anchor="middle">DAY · 论文</text>
  <line x1="60" y1="75" x2="1140" y2="75" stroke="#1A1714" stroke-width="0.8"/>

  <!-- column dividers -->
  <line x1="400" y1="80" x2="400" y2="440" stroke="#D8D4CC" stroke-width="0.5" stroke-dasharray="3,4"/>
  <line x1="800" y1="80" x2="800" y2="440" stroke="#D8D4CC" stroke-width="0.5" stroke-dasharray="3,4"/>

  <!-- ===== Night nodes (5) ===== -->

  <rect x="60" y="100" width="320" height="50" fill="#FBFAF7" stroke="#D8D4CC"/>
  <text x="74" y="118" font-size="9" font-family="ui-monospace, monospace" fill="#1F3A5F" letter-spacing="1.5">CONTRADICTION</text>
  <text x="74" y="138" font-size="13" fill="#1A1714">0.8% &lt; 1% 理论极限：理论错了？</text>
  <line x1="74" y1="146" x2="92" y2="146" stroke="#7B2D26" stroke-width="2"/>
  <text x="100" y="148" font-size="9" font-family="ui-monospace, monospace" fill="#8A8276">jili · 03-12</text>

  <rect x="60" y="160" width="320" height="50" fill="#FBFAF7" stroke="#D8D4CC"/>
  <text x="74" y="178" font-size="9" font-family="ui-monospace, monospace" fill="#1F3A5F" letter-spacing="1.5">METAPHOR</text>
  <text x="74" y="198" font-size="13" font-style="italic" fill="#1A1714">错误率像血压：device-dependent</text>
  <line x1="74" y1="206" x2="92" y2="206" stroke="#7B2D26" stroke-width="2"/>
  <text x="100" y="208" font-size="9" font-family="ui-monospace, monospace" fill="#8A8276">alice · 03-15</text>

  <rect x="60" y="220" width="320" height="50" fill="#FBFAF7" stroke="#D8D4CC"/>
  <text x="74" y="238" font-size="9" font-family="ui-monospace, monospace" fill="#1F3A5F" letter-spacing="1.5">QUESTION</text>
  <text x="74" y="258" font-size="13" fill="#1A1714">T1 / 串扰 / 温漂 哪个主导？</text>
  <line x1="74" y1="266" x2="92" y2="266" stroke="#7B2D26" stroke-width="2"/>
  <text x="100" y="268" font-size="9" font-family="ui-monospace, monospace" fill="#8A8276">jili · 03-18</text>

  <rect x="60" y="280" width="320" height="50" fill="#FBFAF7" stroke="#D8D4CC"/>
  <text x="74" y="298" font-size="9" font-family="ui-monospace, monospace" fill="#1F3A5F" letter-spacing="1.5">THOUGHT-EXPERIMENT</text>
  <text x="74" y="318" font-size="13" font-style="italic" fill="#1A1714">理想极限设备：会出现什么？</text>
  <line x1="74" y1="326" x2="92" y2="326" stroke="#3F5B3A" stroke-width="2"/>
  <text x="100" y="328" font-size="9" font-family="ui-monospace, monospace" fill="#8A8276">bob · 03-22</text>

  <rect x="60" y="340" width="320" height="50" fill="#FBFAF7" stroke="#D8D4CC"/>
  <text x="74" y="358" font-size="9" font-family="ui-monospace, monospace" fill="#1F3A5F" letter-spacing="1.5">CONSTRAINT</text>
  <text x="74" y="378" font-size="13" fill="#1A1714">Shor 1995 阈值定理（物理边界）</text>
  <line x1="74" y1="386" x2="92" y2="386" stroke="#3F5B3A" stroke-width="2"/>
  <text x="100" y="388" font-size="9" font-family="ui-monospace, monospace" fill="#8A8276">moss · 04-03</text>

  <!-- ===== Bridge nodes (3, including 1 orphan) ===== -->

  <rect x="430" y="155" width="340" height="68" fill="#FBFAF7" stroke="#1A1714" stroke-width="0.6"/>
  <text x="444" y="173" font-size="9" font-family="ui-monospace, monospace" fill="#1F3A5F" letter-spacing="1.5">TOY-MODEL · HYPOTHESIS-SKETCH</text>
  <text x="444" y="193" font-size="13" fill="#1A1714">device-dependent error model</text>
  <text x="444" y="213" font-size="12" font-style="italic" fill="#1A1714">err(t,d) = α·T₁(d)⁻¹ + β·xtalk(d) + γ·drift(t)</text>
  <line x1="444" y1="220" x2="462" y2="220" stroke="#7B2D26" stroke-width="2"/>
  <line x1="466" y1="220" x2="484" y2="220" stroke="#7B2D26" stroke-width="2"/>
  <text x="492" y="222" font-size="9" font-family="ui-monospace, monospace" fill="#8A8276">jili + alice · 04-08</text>

  <rect x="430" y="240" width="340" height="50" fill="#FBFAF7" stroke="#D8D4CC"/>
  <text x="444" y="258" font-size="9" font-family="ui-monospace, monospace" fill="#1F3A5F" letter-spacing="1.5">ANALOGY-MAPPING</text>
  <text x="444" y="278" font-size="13" font-style="italic" fill="#1A1714">血压 homeostasis → QEC 反馈</text>
  <line x1="444" y1="286" x2="462" y2="286" stroke="#7B2D26" stroke-width="2"/>
  <text x="470" y="288" font-size="9" font-family="ui-monospace, monospace" fill="#8A8276">alice · 04-12</text>

  <rect x="430" y="305" width="340" height="68" fill="#FBFAF7" stroke="#D8D4CC" stroke-dasharray="4,3"/>
  <text x="444" y="323" font-size="9" font-family="ui-monospace, monospace" fill="#8A8276" letter-spacing="1.5">DESIGN-FICTION · ORPHAN</text>
  <text x="444" y="343" font-size="13" font-style="italic" fill="#4A443C">理想 QEC 设备 spec book</text>
  <text x="444" y="361" font-size="11" font-family="ui-monospace, monospace" fill="#8A8276">↓ 没进论文 · 单独 archive · still citable</text>
  <line x1="444" y1="367" x2="462" y2="367" stroke="#3F5B3A" stroke-width="2"/>
  <text x="470" y="369" font-size="9" font-family="ui-monospace, monospace" fill="#8A8276">bob · 04-15</text>

  <!-- ===== Day nodes (2) ===== -->

  <rect x="830" y="195" width="320" height="68" fill="#FBFAF7" stroke="#1A1714" stroke-width="0.6"/>
  <text x="844" y="213" font-size="9" font-family="ui-monospace, monospace" fill="#1F3A5F" letter-spacing="1.5">MANUSCRIPT</text>
  <text x="844" y="233" font-size="13" font-weight="500" fill="#1A1714">device-dependent error model</text>
  <text x="844" y="251" font-size="11" font-family="ui-monospace, monospace" fill="#8A8276">arXiv:2605.xxxxx · in review</text>
  <line x1="844" y1="257" x2="862" y2="257" stroke="#7B2D26" stroke-width="2"/>
  <line x1="866" y1="257" x2="884" y2="257" stroke="#7B2D26" stroke-width="2"/>
  <line x1="888" y1="257" x2="906" y2="257" stroke="#3F5B3A" stroke-width="2"/>
  <text x="914" y="259" font-size="9" font-family="ui-monospace, monospace" fill="#8A8276">jili + alice + moss · 05-08</text>

  <rect x="830" y="285" width="320" height="50" fill="#FBFAF7" stroke="#D8D4CC"/>
  <text x="844" y="303" font-size="9" font-family="ui-monospace, monospace" fill="#1F3A5F" letter-spacing="1.5">CODE · SUPPLEMENT</text>
  <text x="844" y="323" font-size="13" fill="#1A1714">github.com/qec/toy-model</text>
  <line x1="844" y1="330" x2="862" y2="330" stroke="#7B2D26" stroke-width="2"/>
  <text x="870" y="332" font-size="9" font-family="ui-monospace, monospace" fill="#8A8276">alice · 05-10 · MIT</text>

  <!-- ===== Edges: all 6 InteractionMode values ===== -->

  <path d="M 380 125 Q 405 130 430 185" fill="none" stroke="#1F3A5F" stroke-width="1.2"/>
  <polygon points="425,180 432,193 437,182" fill="#1F3A5F"/>
  <text x="385" y="115" font-size="9.5" font-family="ui-monospace, monospace" fill="#1F3A5F" letter-spacing="0.5">anomaly-input</text>

  <path d="M 380 185 Q 405 220 430 260" fill="none" stroke="#1F3A5F" stroke-width="1.2"/>
  <polygon points="425,255 432,268 437,257" fill="#1F3A5F"/>
  <text x="385" y="232" font-size="9.5" font-family="ui-monospace, monospace" fill="#1F3A5F" letter-spacing="0.5">metaphor-bridge</text>

  <path d="M 380 245 Q 405 220 430 200" fill="none" stroke="#1F3A5F" stroke-width="1.2"/>
  <polygon points="425,195 432,208 437,197" fill="#1F3A5F"/>
  <text x="385" y="218" font-size="9.5" font-family="ui-monospace, monospace" fill="#1F3A5F" letter-spacing="0.5">question-return</text>

  <path d="M 380 305 Q 405 320 430 335" fill="none" stroke="#1F3A5F" stroke-width="1.2"/>
  <polygon points="425,330 432,343 437,332" fill="#1F3A5F"/>
  <text x="385" y="295" font-size="9.5" font-family="ui-monospace, monospace" fill="#1F3A5F" letter-spacing="0.5">method-transfer</text>

  <path d="M 380 365 Q 405 290 430 210" fill="none" stroke="#1F3A5F" stroke-width="1.2" stroke-dasharray="3,3"/>
  <polygon points="425,205 432,218 437,207" fill="#1F3A5F"/>
  <text x="240" y="430" font-size="9.5" font-family="ui-monospace, monospace" fill="#1F3A5F" letter-spacing="0.5">constraint-transfer · 从下方反向上施加边界</text>

  <path d="M 770 190 Q 800 200 830 220" fill="none" stroke="#1F3A5F" stroke-width="1.6"/>
  <polygon points="825,215 832,228 837,217" fill="#1F3A5F"/>
  <text x="780" y="180" font-size="9.5" font-family="ui-monospace, monospace" fill="#1F3A5F" letter-spacing="0.5">hypothesis-output</text>

  <path d="M 770 260 Q 800 250 830 240" fill="none" stroke="#1F3A5F" stroke-width="0.8" stroke-dasharray="2,3"/>
  <polygon points="825,235 832,248 837,237" fill="#1F3A5F" opacity="0.6"/>

  <path d="M 770 215 Q 800 280 830 310" fill="none" stroke="#1F3A5F" stroke-width="0.8" stroke-dasharray="2,3"/>
  <polygon points="825,305 832,318 837,307" fill="#1F3A5F" opacity="0.6"/>

  <!-- ===== Author legend bottom ===== -->
  <line x1="60" y1="448" x2="1140" y2="448" stroke="#D8D4CC" stroke-width="0.5"/>
  <text x="60" y="465" font-size="10" font-family="ui-monospace, monospace" fill="#8A8276">contributors:</text>
  <line x1="160" y1="462" x2="178" y2="462" stroke="#7B2D26" stroke-width="2"/>
  <text x="184" y="465" font-size="10" font-family="ui-monospace, monospace" fill="#4A443C">jili · alice</text>
  <line x1="270" y1="462" x2="288" y2="462" stroke="#3F5B3A" stroke-width="2"/>
  <text x="294" y="465" font-size="10" font-family="ui-monospace, monospace" fill="#4A443C">bob · moss</text>
  <text x="400" y="465" font-size="10" font-family="ui-monospace, monospace" fill="#8A8276">·  2 个月 / 5 想法 + 3 原型（含 1 orphan）+ 2 day artifact / 6 种 interaction-mode 全展示</text>
</svg>
